<svg width="16" height="16" viewBox="0 0 16 16" fill="none" xmlns="http://www.w3.org/2000/svg">
<path d="M2.87869 4.2117C2.60011 4.49028 2.37913 4.821 2.22836 5.18498C2.0776 5.54895 2 5.93907 2 6.33303C2 6.727 2.0776 7.11711 2.22836 7.48109C2.37913 7.84507 2.60011 8.17579 2.87869 8.45437L8.00003 13.5757L13.1213 8.45437C13.6839 7.89175 14 7.12869 14 6.33303C14 5.53738 13.6839 4.77431 13.1213 4.2117C12.5587 3.64909 11.7956 3.33302 11 3.33302C10.2043 3.33302 9.4413 3.64909 8.87869 4.2117L8.00003 5.09037L7.12136 4.2117C6.84278 3.93312 6.51206 3.71214 6.14808 3.56137C5.7841 3.41061 5.39399 3.33301 5.00003 3.33301C4.60606 3.33301 4.21595 3.41061 3.85197 3.56137C3.48799 3.71214 3.15727 3.93312 2.87869 4.2117Z" stroke="#666666" stroke-width="2" stroke-linecap="round" stroke-linejoin="round"/>
</svg>
