<svg width="12" height="10" viewBox="0 0 12 10" fill="none" xmlns="http://www.w3.org/2000/svg">
<path d="M2.15902 2.15902C1.95008 2.36795 1.78435 2.61599 1.67127 2.88898C1.5582 3.16195 1.5 3.45455 1.5 3.75002C1.5 4.04549 1.5582 4.33807 1.67127 4.61106C1.78435 4.88404 1.95008 5.13208 2.15902 5.34102L6.00002 9.18202L9.84097 5.34102C10.2629 4.91905 10.5 4.34676 10.5 3.75002C10.5 3.15328 10.2629 2.58097 9.84097 2.15902C9.41902 1.73706 8.8467 1.50001 8.25 1.50001C7.65322 1.50001 7.08097 1.73706 6.65902 2.15902L6.00002 2.81802L5.34102 2.15902C5.13208 1.95008 4.88404 1.78435 4.61106 1.67127C4.33807 1.5582 4.04549 1.5 3.75002 1.5C3.45455 1.5 3.16196 1.5582 2.88898 1.67127C2.61599 1.78435 2.36795 1.95008 2.15902 2.15902Z" fill="#FF4757" stroke="#FF4757" stroke-width="1.5" stroke-linecap="round" stroke-linejoin="round"/>
</svg>
