<svg width="275" height="56" viewBox="0 0 275 56" fill="none" xmlns="http://www.w3.org/2000/svg">
<path d="M0.845234 52.86L6.92523 50.58L27.8252 0.0399971H30.1052L51.7652 51.72L55.5652 52.86V54H46.4452C43.8106 54 41.6572 53.4173 39.9852 52.252C38.3132 51.036 37.0719 49.4653 36.2612 47.54L32.3852 38.42H14.2212L9.20523 50.58L14.9052 52.86V54H0.845234V52.86ZM14.9812 36.52H31.6252L23.2652 16.532L14.9812 36.52ZM57.0615 52.86L61.6215 51.72V18.28L57.0615 17.14V16H66.9415C71.5015 16 73.7815 18.28 73.7815 22.84V51.72L78.3415 52.86V54H57.0615V52.86ZM66.9415 11.44C65.4215 11.44 64.1548 10.9333 63.1415 9.92C62.1282 8.90666 61.6215 7.64 61.6215 6.12C61.6215 4.6 62.1282 3.33333 63.1415 2.32C64.1548 1.30666 65.4215 0.799996 66.9415 0.799996C68.4615 0.799996 69.7282 1.30666 70.7415 2.32C71.7548 3.33333 72.2615 4.6 72.2615 6.12C72.2615 7.64 71.7548 8.90666 70.7415 9.92C69.7282 10.9333 68.4615 11.44 66.9415 11.44ZM82.5096 31.2V27.78H112.91V31.2H82.5096ZM125.064 52.86L129.624 51.72V2.7H120.884C120.884 5.79067 120.048 8.75466 118.376 11.592C117.666 12.7573 116.856 13.72 115.944 14.48H113.664V0.799996H158.124V14.48H155.844C154.881 13.72 154.045 12.7573 153.336 11.592C151.714 8.856 150.904 5.892 150.904 2.7H142.164V51.72L146.724 52.86V54H125.064V52.86ZM174.081 55.14C169.571 55.14 166.101 54.1773 163.669 52.252C161.237 50.3267 160.021 47.8693 160.021 44.88C160.021 42.904 160.451 40.9533 161.313 39.028C161.667 38.116 162.123 37.28 162.681 36.52C164.758 36.0133 167.013 35.5573 169.445 35.152C174.917 34.24 179.755 33.6827 183.961 33.48V31.2C183.961 25.576 183.277 21.7 181.909 19.572C180.541 17.444 178.438 16.38 175.601 16.38C174.537 16.38 173.625 16.5067 172.865 16.76L171.801 17.14V28.54L170.813 28.768C170.002 28.8693 169.318 28.92 168.761 28.92C167.038 28.92 165.645 28.4133 164.581 27.4C163.567 26.336 163.061 24.9427 163.061 23.22C163.061 20.8893 164.226 18.9133 166.557 17.292C168.938 15.6707 172.459 14.86 177.121 14.86C181.073 14.86 184.467 15.5693 187.305 16.988C190.193 18.356 192.371 20.2813 193.841 22.764C195.361 25.196 196.121 28.008 196.121 31.2V51.72L200.681 52.86V54H193.841C190.801 54 188.445 53.0627 186.773 51.188C186.063 50.428 185.506 49.4653 185.101 48.3C184.391 49.5667 183.555 50.7067 182.593 51.72C180.313 54 177.475 55.14 174.081 55.14ZM177.121 52.48C178.995 52.48 180.693 51.4667 182.213 49.44C182.77 48.68 183.353 47.6667 183.961 46.4V35.38C181.63 35.38 179.401 35.5067 177.273 35.76C175.702 35.9627 174.638 36.0893 174.081 36.14C173.827 36.6973 173.574 37.4573 173.321 38.42C172.814 40.3453 172.561 42.2453 172.561 44.12C172.561 46.9573 172.991 49.06 173.853 50.428C174.714 51.796 175.803 52.48 177.121 52.48ZM205.276 52.86L209.836 51.72V3.08L205.276 1.94V0.799996H215.156C219.716 0.799996 221.996 3.08 221.996 7.64V51.72L226.556 52.86V54H205.276V52.86ZM231.104 52.86L235.664 51.72V3.08L231.104 1.94V0.799996H240.984C245.544 0.799996 247.824 3.08 247.824 7.64V34.24L261.884 19.42L256.184 17.14V16H270.624V17.14L264.544 19.42L255.804 28.54L270.624 51.72L274.424 52.86V54H264.544C262.112 54 260.136 53.468 258.616 52.404C257.096 51.34 255.652 49.7187 254.284 47.54L247.824 37.28V51.72L252.384 52.86V54H231.104V52.86Z" fill="url(#paint0_linear_2820_12413)"/>
<defs>
<linearGradient id="paint0_linear_2820_12413" x1="-94.1665" y1="11.3051" x2="-36.6922" y2="148.437" gradientUnits="userSpaceOnUse">
<stop offset="1" stop-color="#9FC9FF"/>
<stop stop-color="#B4ACFE"/>
</linearGradient>
</defs>
</svg>
