<svg width="20" height="20" viewBox="0 0 20 20" fill="none" xmlns="http://www.w3.org/2000/svg">
<path d="M2.5 7.50065C2.5 7.05862 2.67559 6.6347 2.98816 6.32214C3.30072 6.00958 3.72464 5.83398 4.16667 5.83398H4.94167C5.21599 5.83403 5.48608 5.76635 5.72797 5.63698C5.96987 5.5076 6.17609 5.32051 6.32833 5.09232L7.005 4.07565C7.15725 3.84746 7.36347 3.66037 7.60536 3.53099C7.84726 3.40161 8.11735 3.33394 8.39167 3.33398H11.6083C11.8827 3.33394 12.1527 3.40161 12.3946 3.53099C12.6365 3.66037 12.8428 3.84746 12.995 4.07565L13.6717 5.09232C13.8239 5.32051 14.0301 5.5076 14.272 5.63698C14.5139 5.76635 14.784 5.83403 15.0583 5.83398H15.8333C16.2754 5.83398 16.6993 6.00958 17.0118 6.32214C17.3244 6.6347 17.5 7.05862 17.5 7.50065V15.0007C17.5 15.4427 17.3244 15.8666 17.0118 16.1792C16.6993 16.4917 16.2754 16.6673 15.8333 16.6673H4.16667C3.72464 16.6673 3.30072 16.4917 2.98816 16.1792C2.67559 15.8666 2.5 15.4427 2.5 15.0007V7.50065Z" stroke="black" stroke-width="2" stroke-linecap="round" stroke-linejoin="round"/>
<path d="M12.5 10.834C12.5 11.497 12.2366 12.1329 11.7678 12.6018C11.2989 13.0706 10.663 13.334 10 13.334C9.33696 13.334 8.70107 13.0706 8.23223 12.6018C7.76339 12.1329 7.5 11.497 7.5 10.834C7.5 10.1709 7.76339 9.53506 8.23223 9.06622C8.70107 8.59738 9.33696 8.33398 10 8.33398C10.663 8.33398 11.2989 8.59738 11.7678 9.06622C12.2366 9.53506 12.5 10.1709 12.5 10.834Z" stroke="black" stroke-width="2" stroke-linecap="round" stroke-linejoin="round"/>
</svg>
